# xmcd
#
# Track frame offsets:
#	150
#	15876
#	36068
#	57124
#	90692
#	108397
#	133107
#	157816
#	180353
#	207094
#	234081
#	258615
#	276130
#	309741
#	338598
#
# Disc length: 4844 seconds
#
# Revision: 1
# Processed by: cddbd v1.5.2PL0 Copyright (c) Steve Scherf et al.
# Submitted via: audiograbber 1.83.01
#
DISCID=b812ea0f
DTITLE=Freddie King - Texas Flyer 1974 -1976 Disc 2
DYEAR=2010
DGENRE=Blues
TTITLE0=You Can Run, But You Can't Hide
TTITLE1=Woke Up This Morning
TTITLE2=Meet Me In The Morning
TTITLE3=The Things I Used To Do
TTITLE4=Ain't That I Don't Love You
TTITLE5=Have You Ever Loved A Woman
TTITLE6=Big Leg Woman ( With A Short Short Mini Skirt )
TTITLE7=Woman Across The River
TTITLE8=Look On Yonder Wall
TTITLE9=Ain't No Sunshine
TTITLE10=Sweet Home Chicago
TTITLE11=Boogie Funk
TTITLE12=Little Bluebird
TTITLE13=Come On ( Let The Good Times Roll )
TTITLE14=Going Down
EXTD=
EXTT0=
EXTT1=
EXTT2=
EXTT3=
EXTT4=
EXTT5=
EXTT6=
EXTT7=
EXTT8=
EXTT9=
EXTT10=
EXTT11=
EXTT12=
EXTT13=
EXTT14=
PLAYORDER=
